<svg width="127" height="45" xmlns="http://www.w3.org/2000/svg" xmlns:xlink="http://www.w3.org/1999/xlink" xml:space="preserve" overflow="hidden"><g transform="translate(-846 -565)"><path d="M0 0 3.31909 0 3.31909 1.22262-8.24874 1.22262-8.24874 0-4.91136 0-4.91136-23.2676-8.24874-23.2676-8.24874-24.4798 3.31909-24.4798 3.31909-23.2676 5.80075e-16-23.2676 0 0Z" transform="matrix(1 0 0 -1.0077 946.75 568.266)"/><path d="M0 0 0 1.20694-3.54506 1.20694-3.54506 24.7384C1.87311 25.0088 2.79922 23.8489 3.49412 18.931L4.68408 18.931 4.26218 25.7024-16.3185 25.7024-16.7378 18.931-15.5165 18.931C-14.8164 23.8489-13.902 25.0088-8.47341 24.7384L-8.47341 1.20694-12.0211 1.20694-12.0211 0 0 0" transform="matrix(1 0 0 -1.0077 967.8 592.935)"/><path d="M0 0 0 1.21347-9.4805 1.21347-15.0528-16.3656-20.4331 1.21347-29.8783 1.21347-29.8783 2.90038e-16-26.5566 2.90038e-16-26.5566-23.2833-30.1448-23.2793C-33.4783-23.3603-33.5292-20.5193-33.5148-19.9315-33.4691-13.6656-34.8681-11.385-40.8727-10.4575L-40.8727-10.374C-37.2911-9.99515-32.7128-8.9763-32.7128-4.63445-32.7128 0.71058-37.7026 1.21347-41.9112 1.21347L-54.3032 1.21347-54.3032 2.61034e-15-50.9854 2.61034e-15-50.9854-23.2793-54.3032-23.2793-54.3032-24.4889-42.7419-24.4889-42.7419-23.2793-46.0597-23.2793-46.0597-11.0062C-43.928-10.9213-41.5258-11.4659-40.4417-12.3986-39.4398-13.2476-38.9004-15.8862-38.9004-19.0707-38.9004-23.0011-36.8718-24.4889-32.9793-24.4889L-21.8373-24.4889-21.8373-23.2833-25.0832-23.2833-25.0832-0.398395-25.0035-0.398395-17.3517-24.4889-16.0521-24.4889-8.35193-0.398395-8.23568-0.398395-8.23568-23.2833-11.5456-23.2833-11.5456-24.4889 6.96091e-15-24.4889 6.96091e-15-23.2833-3.31256-23.2833-3.31256 0 0 0ZM-46.0597-9.80575-46.0597 0-42.7119 0C-39.2844 0-38.0187-0.860795-38.0187-5.18306-38.0187-8.63015-39.4398-9.80575-42.9052-9.80575L-46.0597-9.80575" transform="matrix(1 0 0 -1.0077 936.3 568.257)"/><path d="M0 0-3.83766 0-3.83766-3.11793-10.2277-3.11793-10.2277-9.61896-15.0345-9.61896-15.0345-19.1661-10.2277-19.1661-10.2277-25.6684-3.83766-25.6684-3.83766-28.7772-0.454562-28.7772C7.45064-28.7772 14.4245-22.3963 14.4245-14.4245 14.4245-6.50756 7.91827 0 0 0" fill="#E42A20" transform="matrix(1 0 0 -1.0077 861.539 565.498)"/><path d="M0 0C0 0.214219-0.114947 0.313491-0.313491 0.313491L-0.927412 0.313491-0.927412 1.54133 0.513342 1.54133C1.156 1.54133 1.42769 1.26964 1.42769 0.626983L1.42769-4.95316C1.42769-6.46445 2.38253-7.36574 3.83896-7.36574 5.29408-7.36574 6.25154-6.46445 6.25154-4.93879L6.25154 0.626983C6.25154 1.26964 6.53629 1.54133 7.17765 1.54133L8.60534 1.54133 8.60534 0.313491 7.99142 0.313491C7.79157 0.313491 7.67923 0.214219 7.67923 0L7.67923-5.00933C7.67923-7.20638 6.15096-8.70592 3.85333-8.70592 1.54133-8.70592 -5.80075e-16-7.20638 -5.80075e-16-5.00933L0 0Z" transform="matrix(1 0 0 -1.0077 885.314 600.771)"/><path d="M0 0 0.612614 0C0.813771 0 0.927412 0.114947 0.927412 0.313491L0.927412 8.84829 2.22579 8.84829 6.70741 2.46874C7.07837 1.92667 7.54992 1.09853 7.54992 1.09853L7.57735 1.09853C7.57735 1.09853 7.47807 1.89793 7.47807 2.46874L7.47807 7.93394C7.47807 8.5766 7.74846 8.84829 8.40549 8.84829L9.83318 8.84829 9.83318 7.62045 9.21926 7.62045C9.01941 7.62045 8.90577 7.52118 8.90577 7.30696L8.90577-1.22784 7.62045-1.22784 3.12577 5.1504C2.75481 5.69509 2.29763 6.52193 2.29763 6.52193L2.26889 6.52193C2.26889 6.52193 2.3551 5.70815 2.3551 5.1504L2.3551-0.313491C2.3551-0.956149 2.0821-1.22784 1.44075-1.22784L0-1.22784 0 0Z" transform="matrix(1 0 0 -1.0077 894.885 608.134)"/><path d="M0 0 0.984885 0 0.984885 7.62045 0 7.62045 0 8.84829 3.32562 8.84829 3.32562 7.62045 2.34074 7.62045 2.34074 0 3.32562 0 3.32562-1.22784 0-1.22784 0 0Z" transform="matrix(1 0 0 -1.0077 906.267 608.134)"/><path d="M0 0C-0.0849039 0.257324-0.228587 0.313491-0.468931 0.313491L-0.668782 0.313491-0.668782 1.54133 0.129315 1.54133C0.842508 1.54133 1.08677 1.38328 1.31405 0.713193L3.52547-5.49524C3.71226-6.03732 3.91211-6.87852 3.91211-6.87852L3.94085-6.87852C3.94085-6.87852 4.12502-6.03732 4.32618-5.49524L6.5376 0.713193C6.77925 1.38328 7.00784 1.54133 7.72103 1.54133L8.52043 1.54133 8.52043 0.313491 8.32189 0.313491C8.06326 0.313491 7.93656 0.257324 7.85035 0L4.68147-8.5348 3.16887-8.5348 0 0Z" transform="matrix(1 0 0 -1.0077 911.147 600.771)"/><path d="M0 0-0.926106 0-0.926106 1.22653 4.99757 1.22653C5.63893 1.22653 5.90931 0.956149 5.90931 0.313491L5.90931-0.956149 4.60963-0.956149 4.60963-0.313491C4.60963-0.0992723 4.49599 0 4.29614 0L1.429 0 1.429-3.15451 4.95186-3.15451 4.95186-4.38104 1.429-4.38104 1.429-7.30696C1.429-7.5055 1.54264-7.62045 1.74249-7.62045L4.68147-7.62045C4.88263-7.62045 4.99757-7.5055 4.99757-7.30696L4.99757-6.6643 6.30901-6.6643 6.30901-7.93394C6.30901-8.57791 6.03863-8.84829 5.39597-8.84829L0.91435-8.84829C0.271692-8.84829 2.90038e-16-8.57791 2.90038e-16-7.93394L0 0Z" transform="matrix(1 0 0 -1.0077 921.425 600.454)"/><path d="M0 0C1.08416 0 1.72551 0.700131 1.72551 1.82739 1.72551 2.95596 1.08416 3.61168 0.0274305 3.61168L-1.85613 3.61168-1.85613 0 0 0ZM-3.28382 3.61168-4.21123 3.61168-4.21123 4.83822 0.184176 4.83822C1.9541 4.83822 3.19631 3.72532 3.19631 1.88356 3.19631 0.201157 2.09778-0.628289 1.38328-0.783728L1.38328-0.812465C1.38328-0.812465 1.64191-0.940474 1.81041-1.26964L3.02519-3.68091C3.16887-3.98134 3.39616-4.01008 3.73838-4.01008L3.92517-4.01008 3.92517-5.23661 3.22374-5.23661C2.44001-5.23661 2.15395-5.13734 1.82739-4.48031L0.457175-1.76992C0.199851-1.29838 0.0130621-1.22653-0.543385-1.22653L-1.85613-1.22653-1.85613-5.23661-3.28382-5.23661-3.28382 3.61168Z" transform="matrix(1 0 0 -1.0077 933.019 604.094)"/><path d="M0 0C0 0 1.02799-1.21347 2.52491-1.21347 3.468-1.21347 4.25434-0.641351 4.25434 0.286061 4.25434 2.39821-0.613921 2.07035-0.613921 5.20918-0.613921 6.72178 0.713193 7.90651 2.61243 7.90651 3.68352 7.90651 5.47957 7.4206 5.47957 6.05169L5.47957 5.22224 4.16813 5.22224 4.16813 5.69379C4.16813 6.2228 3.41183 6.60814 2.61243 6.60814 1.52696 6.60814 0.842508 6.00858 0.842508 5.25229 0.842508 3.21067 5.69509 3.66785 5.69509 0.357903 5.69509-1.18474 4.49468-2.51185 2.49879-2.51185 0.356596-2.51185-0.841202-1.01232-0.841202-1.01232L0 0Z" transform="matrix(1 0 0 -1.0077 938.77 607.012)"/><path d="M0 0 0.984885 0 0.984885 7.62045 0 7.62045 0 8.84829 3.32693 8.84829 3.32693 7.62045 2.34074 7.62045 2.34074 0 3.32693 0 3.32693-1.22784 0-1.22784 0 0Z" transform="matrix(1 0 0 -1.0077 945.961 608.134)"/><path d="M0 0-2.02724 0C-2.22709 0-2.34074-0.0992723-2.34074-0.313491L-2.34074-0.956149-3.61037-0.956149-3.61037 0.370965C-3.61037 1.01232-3.39746 1.22653-2.75481 1.22653L4.1825 1.22653C4.82254 1.22653 5.03807 1.01232 5.03807 0.370965L5.03807-0.956149 3.76843-0.956149 3.76843-0.313491C3.76843-0.0992723 3.65479 0 3.45363 0L1.42639 0 1.42639-8.84829 0-8.84829 0 0Z" transform="matrix(1 0 0 -1.0077 953.827 600.454)"/><path d="M0 0-2.55495 4.09629C-2.74044 4.39672-2.86975 4.45288-3.17018 4.45288L-3.45494 4.45288-3.45494 5.68072-2.79922 5.68072C-2.11345 5.68072-1.84307 5.58015-1.44206 4.90875L0.0849039 2.36817C0.41407 1.81302 0.698824 1.2409 0.698824 1.2409L0.727561 1.2409C0.727561 1.2409 0.997947 1.81302 1.34018 2.36817L2.85538 4.90875C3.25247 5.58015 3.53853 5.68072 4.20862 5.68072L4.86565 5.68072 4.86565 4.45288 4.59265 4.45288C4.29483 4.45288 4.15245 4.39672 3.96697 4.09629L1.42508 0 1.42508-4.39541 0-4.39541 0 0Z" transform="matrix(1 0 0 -1.0077 962.933 604.942)"/></g></svg>